<svg height="532.5" viewBox="0 0 630.61163 532.5" width="630.61163" xmlns="http://www.w3.org/2000/svg"><path d="m93.512 510.086 12.234 3.42 19.016-45.562-18.056-5.048z" fill="#ffb8b8"/><path d="m373.74781 694.69751h39.92574a0 0 0 0 1 0 0v15.42585a0 0 0 0 1 0 0h-26.04381a13.88193 13.88193 0 0 1 -13.88193-13.88193v-1.54392a0 0 0 0 1 0 0z" fill="#2f2e41" transform="matrix(-.9630685 -.26925652 .26925652 -.9630685 299.05821 1301.13898)"/><path d="m239.451 519.667 12.704-.001 6.041-49-18.749.001z" fill="#ffb8b8"/><path d="m521.4237 699.786h39.92574a0 0 0 0 1 0 0v15.42585a0 0 0 0 1 0 0h-26.04381a13.88193 13.88193 0 0 1 -13.88193-13.88193v-1.54392a0 0 0 0 1 0 0z" fill="#2f2e41" transform="matrix(-1 .00009023 -.00009023 -1 798.14279 1231.199)"/><path d="m145.049 316.237-29.24 71.631 119.397 26.823 1.523-40.076-54.216-57.747z" fill="#b3b3b3"/><circle cx="481.43241" cy="364.45203" fill="#ffb8b8" r="27.29263" transform="matrix(.87745434 -.47966018 .47966018 .87745434 -400.50986 91.83598)"/><path d="m500.934 496.02344-54.044-22.12305-4.81176-31.72754a36.45558 36.45558 0 0 1 28.89749-41.25585l7.14843-1.43554a36.79131 36.79131 0 0 1 32.94727 9.772 35.12661 35.12661 0 0 1 10.30688 31.60449 30.60008 30.60008 0 0 1 -5.78149 13.47021c-16.97778 22.20167-14.79834 40.65772-14.77417 40.8418z" fill="#7400db" transform="translate(-284.69418 -183.75)"/><path d="m522.93959 578.76465-27.08471-43.07422 8.53076-78.35449-11.78418-58.60108.62646.01563a26.70383 26.70383 0 0 1 26.03708 26.04834l11.46387 57.42383z" fill="#2f2e41" transform="translate(-284.69418 -183.75)"/><path d="m523.55825 694.15381a4.946 4.946 0 0 1 -4.844-3.97022l-11.866-59.00488a92.563 92.563 0 0 0 -12.05151-30.52148l-33.48169-54.16162a1.72243 1.72243 0 0 0 -3.05517.24414l-55.04712 132.2373a4.9562 4.9562 0 0 1 -5.553 2.94434l-14.7052-2.998a4.924 4.924 0 0 1 -3.88733-5.67188l11.99609-70.69775a182.47371 182.47371 0 0 1 12.41919-41.88916l40.627-93.89355 59.95507 19.69043 3.9563 41.98242 27.70212 67.07856a45.98228 45.98228 0 0 1 3.3877 14.54834l5.11792 77.5249a4.96767 4.96767 0 0 1 -4.531 5.2544l-15.73218 1.28711c-.13644.01079-.27244.0166-.40719.0166z" fill="#2f2e41" transform="translate(-284.69418 -183.75)"/><path d="m414.18532 597.97461-19.00745-18.0415 35.92151-138.51758a58.06061 58.06061 0 0 1 34.16468-39.03076l.70532-.28711-1.91944 84.30468z" fill="#2f2e41" transform="translate(-284.69418 -183.75)"/><path d="m475.07214 391.64694c-6.7427-5.83628-8.79338-16.7236-4.66183-24.75013s14.01047-12.34744 22.45774-9.82272c7.9559 2.37787 17.00017-5.55377 16.03091-14.05877s-11.54881-14.04517-18.7522-9.81991a30.51075 30.51075 0 0 0 -32.52392 6.3346c-8.46306 8.29077-11.67367 21.84425-7.87434 33.24121s14.40459 20.02537 25.32364 18.87572z" fill="#2f2e41" transform="translate(-284.69418 -183.75)"/><path d="m451.19692 613.46363a4.66266 4.66266 0 0 1 -1.03329.26633l-43.39494 6.0576a4.67 4.67 0 0 1 -5.02681-2.96278l-37.35282-97.19509a4.69015 4.69015 0 0 1 3.35629-6.26032l.00023-.00009 40.80846-9.10662a3.728 3.728 0 0 0 .90578-.33136l39.692-20.75223a4.64571 4.64571 0 0 1 .96491-.37553l43.68136-11.645a4.681 4.681 0 0 1 5.58631 2.84924l32.56935 84.74813a4.66674 4.66674 0 0 1 -.61613 4.48382l-11.26374 15.126a4.68394 4.68394 0 0 1 -2.07947 1.57648l-24.61611 9.46016a3.7085 3.7085 0 0 0 -.51152.24314l-41.019 23.5089a4.68521 4.68521 0 0 1 -.65086.30922z" fill="#fff" transform="translate(-284.69418 -183.75)"/><path d="m471.38654 484.11523-5.547 1.47941-14.69954 3.92049-.02617.006-20.12476 10.5228-7.46846 3.90575-.00347.00133-11.21691 5.86409-.30761.0693-11.65245 2.5986-5.63163 1.25917-22.96944 5.1254 36.05914 93.82882 23.66978-3.303 5.80365-.81156 12.37-1.72874.14359-.0185 39.74931-22.78177 24.18458-9.29432 11.042-14.8275-31.38876-81.67614z" fill="#e6e6e6" transform="translate(-284.69418 -183.75)"/><path d="m375.72439 514.49898h128.10654v5.70851h-128.10654z" fill="#fff" transform="matrix(.93344182 -.35872884 .35872884 .93344182 -441.01291 8.44503)"/><path d="m382.55041 532.26085h128.10654v5.70851h-128.10654z" fill="#fff" transform="matrix(.93344182 -.35872884 .35872884 .93344182 -446.93028 12.07592)"/><path d="m396.33897 568.13981h128.10654v5.70851h-128.10654z" fill="#fff" transform="matrix(.93344182 -.35872884 .35872884 .93344182 -458.88335 19.41031)"/><path d="m186.692 300.365 35.8 93.154-5.328 2.048-36.019-93.722z" fill="#fff"/><path d="m146.295 316.294-7.351 20.454-2.549 7.095-5.946 16.555-1.274 3.539-1.275 3.556-1.679 4.669-12.051 33.538-3.133-8.153 9.826-27.349 2.223-6.192.326-.904 2.629-7.321 3.317-9.233 2.549-7.096 6.916-19.251.003-.001z" fill="#fff"/><path d="m205.707 399.97-.867.333-39.749 22.782-.144.018-37.649-96.969.308-.069 11.217-5.864.003-.001 7.469-3.906 20.125-10.523.026-.006z" opacity=".1"/><path d="m451.37605 613.93044a5.17988 5.17988 0 0 1 -1.14313.29494l-43.39517 6.05769a5.16845 5.16845 0 0 1 -5.56259-3.27893l-37.35282-97.19508a5.19044 5.19044 0 0 1 3.71417-6.92776l40.80846-9.10662a3.24307 3.24307 0 0 0 .78321-.28687l39.692-20.75223a5.16094 5.16094 0 0 1 1.06729-.4154l43.682-11.64475a5.17964 5.17964 0 0 1 6.18166 3.153l32.56935 84.74813a5.16511 5.16511 0 0 1 -.68184 4.96207l-11.26364 15.12542a5.18258 5.18258 0 0 1 -2.30116 1.74485l-24.61611 9.46016a3.21137 3.21137 0 0 0 -.44252.21034l-41.01881 23.50882a5.18984 5.18984 0 0 1 -.72035.34222zm-83.75415-98.96107a3.19083 3.19083 0 0 0 -1.83267 4.12223l37.35277 97.19508a3.1767 3.1767 0 0 0 3.41933 2.01544l43.39517-6.05769a3.20364 3.20364 0 0 0 1.14572-.39166l41.019-23.5089a5.20782 5.20782 0 0 1 .719-.34169l24.6161-9.46016a3.18755 3.18755 0 0 0 1.41451-1.07246l11.26369-15.12546a3.1746 3.1746 0 0 0 .41908-3.05012l-32.56936-84.74813a3.184 3.184 0 0 0 -3.79956-1.93837l-43.68156 11.64512a3.28983 3.28983 0 0 0 -.65573.25514l-39.69255 20.75295a5.276 5.276 0 0 1 -1.27381.466l-40.80869 9.10671a3.16512 3.16512 0 0 0 -.45044.13597z" fill="#e6e6e6" transform="translate(-284.69418 -183.75)"/><path d="m115.646 328.733 36.931 96.099-5.803.811-36.76-95.651z" fill="#fff"/><circle cx="126.26773" cy="364.85865" fill="#3f3d56" r="2.66397"/><circle cx="220.72302" cy="367.69825" fill="#7400db" r="2.66397"/><path d="m506.4957 503.33252c3.02346 7.86728-.615 33.93912-1.89456 42.30813a1.52108 1.52108 0 0 1 -2.46729.9482c-6.555-5.35812-26.71747-22.28309-29.74092-30.15037a18.26722 18.26722 0 1 1 34.10277-13.106z" fill="#7400db" transform="translate(-284.69418 -183.75)"/><circle cx="204.75013" cy="326.1355" fill="#fff" r="9.89474"/><g transform="translate(-284.69418 -183.75)"><path d="m476.73436 488.53547a10.41983 10.41983 0 0 1 14.51564-6.6768l17.6639-15.96738 12.32141 8.36769-25.26156 22.19868a10.47632 10.47632 0 0 1 -19.23939-7.92219z" fill="#ffb8b8"/><path d="m505.1957 493.74707-13.84619-18.791 31.5664-20.20263-22.62475-32.28418a13.082 13.082 0 0 1 19.53051-17.17188l28.32862 25.84619a23.72945 23.72945 0 0 1 -3.32959 37.59766z" fill="#2f2e41"/><path d="m396.71486 543.05087a10.41988 10.41988 0 0 0 1.44679-15.912l9.15293-21.98169-12.00158-8.82018-12.48972 31.22394a10.47632 10.47632 0 0 0 13.8916 15.49z" fill="#ffb8b8"/><path d="m402.89919 520.73145-21.64636-5.041 16.13086-46.51514a76.2628 76.2628 0 0 1 12.13354-22.20556l26.31616-33.46436a14.71572 14.71572 0 0 1 23.2002 18.10938l-29.2013 37.68847z" fill="#2f2e41"/><path d="m666.69418 716.25h-381a1 1 0 1 1 0-2h381a1 1 0 0 1 0 2z" fill="#ccc"/><path d="m814.48159 715.75h-9v-527.5a4.5 4.5 0 0 1 9 0z" fill="#e6e6e6"/><path d="m879.69418 716.25h-140a1 1 0 0 1 0-2h140a1 1 0 0 1 0 2z" fill="#ccc"/><path d="m876.93154 252.75h-130.95a4.50507 4.50507 0 0 1 -4.5-4.5v-38a4.50507 4.50507 0 0 1 4.5-4.5h130.95952a4.50953 4.50953 0 0 1 2.19287.5708l33.86475 18.89893a4.49979 4.49979 0 0 1 .01733 7.84912l-33.87427 19.10107a4.51272 4.51272 0 0 1 -2.2102.58008z" fill="#7400db"/><path d="m864.98159 334.75h-130.95a4.51114 4.51114 0 0 1 -2.21-.58008l-33.87451-19.10107a4.49978 4.49978 0 0 1 .01734-7.84912l33.86474-18.89893a4.50953 4.50953 0 0 1 2.19287-.5708h130.95956a4.50508 4.50508 0 0 1 4.5 4.5v38a4.50508 4.50508 0 0 1 -4.5 4.5z" fill="#e6e6e6"/><path d="m865.48159 415.25h-130.95a4.51114 4.51114 0 0 1 -2.21-.58008l-33.87451-19.10107a4.49978 4.49978 0 0 1 .01734-7.84912l33.86474-18.89893a4.50953 4.50953 0 0 1 2.19287-.5708h130.95956a4.50508 4.50508 0 0 1 4.5 4.5v38a4.50508 4.50508 0 0 1 -4.5 4.5z" fill="#e6e6e6"/></g></svg>