<svg fill="none" height="24" viewBox="0 0 24 24" width="24" xmlns="http://www.w3.org/2000/svg"><path d="m23.7636 9.74969c.1531.80331.2364 1.64321.2364 2.51971 0 6.8558-4.6823 11.7306-11.7543 11.7306-1.6083.0005-3.20088-.3096-4.68682-.9125-1.48593-.6029-2.83608-1.4868-3.9733-2.6011-1.13721-1.1144-2.0392-2.4375-2.654431-3.8936-.615229-1.4562-.93163878-3.0168-.93114843-4.5928-.00049035-1.576.31591943-3.13665.93114843-4.59277.615231-1.45612 1.517221-2.77918 2.654431-3.89358 1.13722-1.1144 2.48737-1.9983 3.9733-2.601183 1.48594-.602886 3.07852-.91294695 4.68682-.91246644 3.3065 0 6.0693 1.19219944 8.1891 3.12799944l-3.4521 3.38277v-.00854c-1.285-1.19951-2.9158-1.81511-4.737-1.81511-4.04044 0-7.32454 3.34498-7.32454 7.30558 0 3.9594 3.2841 7.3116 7.32454 7.3116 3.666 0 6.1614-2.054 6.6739-4.8748h-6.6739v-4.67981h11.5192z" fill="#fff"/></svg>