<svg fill="none" height="32" viewBox="0 0 32 32" width="32" xmlns="http://www.w3.org/2000/svg"><path d="m15.9998 29.3333c7.3638 0 13.3334-5.9695 13.3334-13.3333 0-7.36384-5.9696-13.33337-13.3334-13.33337-7.36376 0-13.3333 5.96953-13.3333 13.33337 0 7.3638 5.96954 13.3333 13.3333 13.3333z" stroke="#000" stroke-linecap="round" stroke-linejoin="round" stroke-width="2.66667"/><path d="m10.6665 18.6667s2 2.6666 5.3333 2.6666c3.3334 0 5.3334-2.6666 5.3334-2.6666m-9.3334-6.6667h.0134m7.9866 0h.0134" stroke="#000" stroke-linecap="round" stroke-linejoin="round" stroke-width="2.66667"/><g fill="#000"><path d="m22 12c0 1.1046-.8954 2-2 2s-2-.8954-2-2 .8954-2 2-2 2 .8954 2 2z"/><path d="m14 12c0 1.1046-.8954 2-2 2s-2-.8954-2-2 .8954-2 2-2 2 .8954 2 2z"/></g></svg>