<svg fill="none" height="25" viewBox="0 0 25 25" width="25" xmlns="http://www.w3.org/2000/svg" xmlns:xlink="http://www.w3.org/1999/xlink"><clipPath id="a"><path d="m.107178.484253h24v24h-24z"/></clipPath><g clip-path="url(#a)"><path d="m19.1072 11.9843s-2 2.17-2 3.5c0 .5304.2107 1.0391.5858 1.4142.3751.375.8838.5858 1.4142.5858.5305 0 1.0392-.2108 1.4143-.5858.375-.3751.5857-.8838.5857-1.4142 0-1.33-2-3.5-2-3.5zm-13.78996-1.5 4.78996-4.79005 4.79 4.79005zm11.34996-1.06005-8.93996-8.939997-1.41 1.409997 2.38 2.38-5.15 5.15c-.59.56-.59 1.53005 0 2.12005l5.5 5.5c.29.29.68.44 1.05996.44.38 0 .77-.15 1.06-.44l5.5-5.5c.59-.59.59-1.56005 0-2.12005z" fill="#000"/></g></svg>