<svg fill="none" height="18" viewBox="0 0 24 18" width="24" xmlns="http://www.w3.org/2000/svg"><path d="m2 0h20c1.05 0 2 .95 2 2v14c0 1.05-.95 2-2 2h-20c-1.05 0-2-.95-2-2v-14c0-1.05.95-2 2-2zm12 3v1h8v-1zm0 2v1h7.5.5v-1zm0 2v1h7v-1zm-6 3.91c-2 0-6 1.09-6 3.09v1h12v-1c0-2-4-3.09-6-3.09zm0-7.91c-.79565 0-1.55871.31607-2.12132.87868s-.87868 1.32567-.87868 2.12132.31607 1.55871.87868 2.12132 1.32567.87868 2.12132.87868 1.55871-.31607 2.1213-.87868c.5626-.56261.8787-1.32567.8787-2.12132s-.3161-1.55871-.8787-2.12132c-.56259-.56261-1.32565-.87868-2.1213-.87868z" fill="#000"/></svg>