<svg fill="none" height="141" viewBox="0 0 170 141" width="170" xmlns="http://www.w3.org/2000/svg" xmlns:xlink="http://www.w3.org/1999/xlink"><linearGradient id="a" gradientUnits="userSpaceOnUse" x1="37" x2="73.347" y1="96" y2="-18.8746"><stop offset="0" stop-color="#9013fe"/><stop offset="1" stop-color="#e01b84"/></linearGradient><rect fill="url(#a)" height="96" rx="30" width="96" x="37"/><g fill="#fff"><path d="m90.7391 34.8654c-.4536 0-.8711.0891-1.2526.2674-1.1322.5799-1.8008 1.6818-1.8093 2.9106v8.4644c.2124 1.3456 1.7263.9797 1.7629 0v-7.9924c.1349-.4557 1-.2668 1.0206 0v18.3447c.22 1.8732 2.5992 1.3233 2.6598-.0315v-11.2333c.1521-.7246 1.1534-.3954 1.1753.0314-.0425 3.7339-.0309 7.4679-.0309 11.2019.2372 1.8636 2.6048 1.3868 2.6598.0315l.0309-18.3447c.1386-.4459.9402-.2749.9588 0v7.9924c.2124 1.3456 1.7262.9797 1.7628 0v-8.4644c-.0214-1.1764-.4451-2.3549-1.4536-2.9106-.3299-.1783-.7319-.2674-1.2062-.2674zm.0312-3.844c0 1.6331 1.3012 2.957 2.9064 2.957 1.6051 0 2.9064-1.3239 2.9064-2.957 0-1.633-1.3013-2.9569-2.9064-2.9569-1.6052 0-2.9064 1.3239-2.9064 2.9569z"/><path d="m70.6772 38.0645h10v2h-10z"/><path d="m110.71 39.2665-4.059-12.1797c-.589-1.7732-1.722-3.3158-3.238-4.4085s-3.337-1.68-5.2056-1.6783h-27.0599c-1.8685-.0017-3.6901.5856-5.2058 1.6783s-2.6485 2.6353-3.2374 4.4085l-4.0599 12.1797c-1.0796.4517-2.0016 1.2125-2.65 2.1867-.6484.9743-.9944 2.1184-.9944 3.2887v14.8387c0 2.1902 1.199 4.0837 2.9677 5.1135v6.7575c0 .7871.3127 1.542.8693 2.0985.5565.5566 1.3114.8693 2.0985.8693h2.9677c.7871 0 1.542-.3127 2.0985-.8693.5566-.5565.8693-1.3114.8693-2.0985v-5.9355h35.613v5.9355c0 .7871.313 1.542.869 2.0985.557.5566 1.312.8693 2.099.8693h2.967c.787 0 1.542-.3127 2.099-.8693.556-.5565.869-1.3114.869-2.0985v-6.7575c.9-.5164 1.649-1.2609 2.17-2.1586s.796-1.9169.798-2.9549v-14.8387c0-1.1703-.346-2.3144-.995-3.2887-.648-.9742-1.57-1.735-2.65-2.1867zm-39.5625-12.331h27.0569c1.2791 0 2.4126.8131 2.8166 2.0299l3.282 9.8411h-39.2513l3.2794-9.8411c.1969-.5912.5749-1.1054 1.0804-1.4697.5055-.3644 1.1129-.5604 1.736-.5602zm-5.7604 29.6774c-.5848-.0002-1.1638-.1156-1.704-.3395-.5402-.224-1.031-.5522-1.4444-.9658-.4134-.4137-.7412-.9047-.9648-1.445-.2236-.5404-.3386-1.1195-.3384-1.7043s.1156-1.1638.3395-1.704c.224-.5402.5522-1.031.9658-1.4444.4137-.4133.9047-.7412 1.445-.9648.5404-.2236 1.1195-.3386 1.7043-.3384 1.181.0004 2.3135.4699 3.1483 1.3053.8349.8354 1.3037 1.9683 1.3033 3.1493s-.47 2.3135-1.3054 3.1484c-.8353.8348-1.9682 1.3036-3.1492 1.3032zm38.5809 0c-.585-.0002-1.164-.1156-1.704-.3395-.54-.224-1.031-.5522-1.445-.9658-.413-.4137-.741-.9047-.9645-1.445-.2236-.5404-.3386-1.1195-.3384-1.7043s.1156-1.1638.3396-1.704c.2243-.5402.5523-1.031.9653-1.4444.414-.4133.905-.7412 1.445-.9648.541-.2236 1.12-.3386 1.705-.3384 1.181.0004 2.313.4699 3.148 1.3053s1.304 1.9683 1.303 3.1493c0 1.181-.47 2.3135-1.305 3.1484-.835.8348-1.968 1.3036-3.149 1.3032z"/><path d="m88.6772 38.0645h10v2h-10z"/><path d="m72.7391 34.8654c-.4536 0-.8711.0891-1.2526.2674-1.1322.5799-1.8008 1.6818-1.8093 2.9106v8.4644c.2124 1.3456 1.7263.9797 1.7629 0v-7.9924c.1349-.4557 1-.2668 1.0206 0v18.3447c.22 1.8732 2.5992 1.3233 2.6598-.0315v-11.2333c.1521-.7246 1.1534-.3954 1.1753.0314-.0425 3.7339-.0309 7.4679-.0309 11.2019.2372 1.8636 2.6048 1.3868 2.6598.0315l.0309-18.3447c.1386-.4459.9402-.2749.9588 0v7.9924c.2124 1.3456 1.7262.9797 1.7628 0v-8.4644c-.0214-1.1764-.4451-2.3549-1.4536-2.9106-.3299-.1783-.7319-.2674-1.2062-.2674zm.0312-3.844c0 1.6331 1.3012 2.957 2.9064 2.957 1.6051 0 2.9064-1.3239 2.9064-2.957 0-1.633-1.3013-2.9569-2.9064-2.9569-1.6052 0-2.9064 1.3239-2.9064 2.9569z"/></g></svg>