<svg fill="none" height="16" viewBox="0 0 18 16" width="18" xmlns="http://www.w3.org/2000/svg"><path d="m2 6 1.5-4.5h11l1.5 4.5zm12.5 5c-.3978 0-.7794-.158-1.0607-.4393s-.4393-.66288-.4393-1.0607.158-.77936.4393-1.06066.6629-.43934 1.0607-.43934.7794.15804 1.0607.43934.4393.66284.4393 1.06066-.158.7794-.4393 1.0607-.6629.4393-1.0607.4393zm-11 0c-.39782 0-.77936-.158-1.06066-.4393s-.43934-.66288-.43934-1.0607.15804-.77936.43934-1.06066.66284-.43934 1.06066-.43934.77936.15804 1.06066.43934.43934.66284.43934 1.06066-.15804.7794-.43934 1.0607-.66284.4393-1.06066.4393zm12.42-10c-.2-.58-.76-1-1.42-1h-11c-.66 0-1.22.42-1.42 1l-2.08 6v8c0 .2652.105357.5196.292893.7071.187537.1875.441891.2929.707107.2929h1c.26522 0 .51957-.1054.70711-.2929.18753-.1875.29289-.4419.29289-.7071v-1h12v1c0 .2652.1054.5196.2929.7071s.4419.2929.7071.2929h1c.2652 0 .5196-.1054.7071-.2929s.2929-.4419.2929-.7071v-8z" fill="#000"/></svg>