<svg fill="none" height="25" viewBox="0 0 25 25" width="25" xmlns="http://www.w3.org/2000/svg"><path d="m7.58252 15.8658h2c0 1.08 1.36998 2 2.99998 2s3-.92 3-2c0-1.1-1.04-1.5-3.24-2.03-2.12-.53-4.75998-1.19-4.75998-3.97005 0-1.79 1.47-3.31 3.49998-3.82v-2.18h3v2.18c2.03.51 3.5 2.03 3.5 3.82h-2c0-1.08-1.37-2-3-2s-2.99998.92-2.99998 2c0 1.10005 1.03998 1.50005 3.23998 2.03005 2.12.53 4.76 1.19 4.76 3.97 0 1.79-1.47 3.31-3.5 3.82v2.18h-3v-2.18c-2.02998-.51-3.49998-2.03-3.49998-3.82z" fill="#000"/></svg>