<svg fill="none" height="32" viewBox="0 0 32 32" width="32" xmlns="http://www.w3.org/2000/svg"><path d="m9.33317 13.3333v16m10.66663-21.49334-1.3333 5.49334h7.7733c.414 0 .8223.0964 1.1926.2815.3703.1852.6924.454.9408.7852.2484.3311.4162.7156.4903 1.1229.074.4073.0523.8263-.0637 1.2237l-3.1066 10.6667c-.1616.5539-.4984 1.0405-.96 1.3867s-1.023.5333-1.6.5333h-18.00003c-.70724 0-1.38552-.281-1.88562-.7811-.50009-.5001-.78105-1.1783-.78105-1.8856v-10.6666c0-.7073.28096-1.3856.78105-1.8857.5001-.5001 1.17838-.781 1.88562-.781h3.68c.49611-.0003.98232-.1389 1.40393-.4004.4216-.2614.762-.6353.9827-1.0796l4.6-9.18667c.6288.00778 1.2477.15755 1.8104.43812.5628.28057 1.0549.68469 1.4395 1.18215s.6519 1.07541.7818 1.69066c.1299.61526.1191 1.25191-.0317 1.8624z" stroke="#000" stroke-linecap="round" stroke-linejoin="round" stroke-width="2.66667"/></svg>