<svg fill="none" height="25" viewBox="0 0 25 25" width="25" xmlns="http://www.w3.org/2000/svg"><path d="m9.10718 10.4843h-2v2h2zm4.00002 0h-2v2h2zm4 0h-2v2h2zm2-7.00005h-1v-2h-2v2h-8.00002v-2h-2v2h-1c-1.11 0-2 .9-2 2v14.00005c0 .5304.21071 1.0391.58578 1.4142.37508.375.88378.5858 1.41422.5858h14.00002c.5304 0 1.0391-.2108 1.4142-.5858.3751-.3751.5858-.8838.5858-1.4142v-14.00005c0-.53043-.2107-1.03914-.5858-1.41421s-.8838-.58579-1.4142-.58579zm0 16.00005h-14.00002v-11.00005h14.00002z" fill="#000"/></svg>