<svg fill="none" height="36" viewBox="0 0 209 36" width="209" xmlns="http://www.w3.org/2000/svg" xmlns:xlink="http://www.w3.org/1999/xlink"><linearGradient id="a" gradientUnits="userSpaceOnUse" x1="0" x2="13.6301" y1="36" y2="-7.07796"><stop offset="0" stop-color="#9013fe"/><stop offset="1" stop-color="#e01b84"/></linearGradient><rect fill="url(#a)" height="36" rx="10" width="36"/><g fill="#fff"><path d="m20.1521 13.0745c-.1701 0-.3267.0334-.4697.1003-.4246.2174-.6753.6307-.6785 1.0915v3.1741c.0796.5046.6473.3674.6611 0v-2.9971c.0506-.1709.375-.1001.3827 0v6.8792c.0825.7025.9747.4963.9974-.0118v-4.2125c.0571-.2717.4325-.1482.4408.0118-.016 1.4002-.0116 2.8005-.0116 4.2007.0889.6988.9768.52.9974.0118l.0116-6.8792c.052-.1673.3526-.1031.3595 0v2.9971c.0797.5046.6474.3674.6611 0v-3.1741c-.008-.4412-.1669-.8831-.5451-1.0915-.1237-.0669-.2745-.1003-.4523-.1003zm.0117-1.4415c0 .6124.488 1.1089 1.0899 1.1089s1.0899-.4965 1.0899-1.1089-.488-1.1088-1.0899-1.1088-1.0899.4964-1.0899 1.1088z"/><path d="m12.6289 14.2742h3.75v.75h-3.75z"/><path d="m27.6414 14.7249-1.5224-4.5673c-.2209-.66501-.6457-1.24348-1.2141-1.65324-.5684-.40977-1.2514-.62998-1.9521-.62936h-10.1475c-.7007-.00062-1.3838.21959-1.9522.62936-.5683.40976-.99315.98823-1.214 1.65324l-1.52245 4.5673c-.40485.1694-.75059.4547-.99375.8201-.24317.3653-.3729.7944-.3729 1.2332v5.5645c0 .8214.44961 1.5314 1.1129 1.9176v2.5341c0 .2951.11726.5782.32597.7869s.49178.326.78694.326h1.11289c.2952 0 .5782-.1173.787-.326.2087-.2087.3259-.4918.3259-.7869v-2.2259h13.3549v2.2259c0 .2951.1172.5782.3259.7869s.4918.326.787.326h1.1129c.2951 0 .5782-.1173.7869-.326s.326-.4918.326-.7869v-2.5341c.3376-.1937.6183-.4729.8136-.8095.1954-.3366.2986-.7188.2993-1.1081v-5.5645c0-.4388-.1298-.8679-.3729-1.2332-.2432-.3654-.5889-.6507-.9938-.8201zm-14.8361-4.6241h10.1463c.4797 0 .9048.3049 1.0562.7612l1.2309 3.6904h-14.7193l1.2298-3.6904c.0738-.2217.2156-.4145.4051-.5511.1896-.1367.4173-.2101.651-.2101zm-2.1601 11.129c-.2193 0-.4365-.0433-.639-.1273-.20262-.084-.38667-.207-.54168-.3622-.15502-.1551-.27796-.3392-.36181-.5418-.08386-.2027-.12698-.4198-.1269-.6391.00007-.2193.04334-.4365.12732-.639.08399-.2026.20706-.3867.36218-.5417.15511-.155.33924-.2779.54189-.3618.2026-.0838.4198-.127.6391-.1269.4429.0002.8676.1762 1.1806.4895.3131.3133.4889.7381.4887 1.181-.0001.4429-.1762.8676-.4895 1.1806-.3132.3131-.7381.4889-1.1809.4887zm14.4677 0c-.2193 0-.4364-.0433-.639-.1273s-.3866-.207-.5416-.3622c-.1551-.1551-.278-.3392-.3618-.5418-.0839-.2027-.127-.4198-.1269-.6391 0-.2193.0433-.4365.1273-.639.084-.2026.207-.3867.3622-.5417.1551-.155.3392-.2779.5418-.3618.2027-.0838.4198-.127.6391-.1269.4429.0002.8676.1762 1.1807.4895.313.3133.4888.7381.4887 1.181-.0002.4429-.1763.8676-.4895 1.1806-.3133.3131-.7381.4889-1.181.4887z"/><path d="m19.3789 14.2742h3.75v.75h-3.75z"/><path d="m13.4021 13.0745c-.1701 0-.3267.0334-.4697.1003-.4246.2174-.6753.6307-.6785 1.0915v3.1741c.0796.5046.6473.3674.6611 0v-2.9971c.0506-.1709.375-.1001.3827 0v6.8792c.0825.7025.9747.4963.9974-.0118v-4.2125c.0571-.2717.4325-.1482.4408.0118-.016 1.4002-.0116 2.8005-.0116 4.2007.0889.6988.9768.52.9974.0118l.0116-6.8792c.052-.1673.3526-.1031.3595 0v2.9971c.0797.5046.6474.3674.6611 0v-3.1741c-.008-.4412-.1669-.8831-.5451-1.0915-.1237-.0669-.2745-.1003-.4523-.1003zm.0117-1.4415c0 .6124.488 1.1089 1.0899 1.1089s1.0899-.4965 1.0899-1.1089-.488-1.1088-1.0899-1.1088-1.0899.4964-1.0899 1.1088z"/></g><path d="m58.4316 28.2148c-1.8066.6836-3.8574 1.0254-6.1523 1.0254-7.5195 0-11.2793-3.6377-11.2793-10.9131 0-6.8847 3.7598-10.3271 11.2793-10.3271 2.2949 0 4.3457.3418 6.1523 1.02539v3.51561c-1.8066-.7812-3.7597-1.1719-5.8593-1.1719-5.0293 0-7.544 2.3194-7.544 6.958 0 5.0293 2.5147 7.544 7.544 7.544 2.0996 0 4.0527-.3906 5.8593-1.1719z" fill="#7400db"/><path d="m64.2471 29.0938h-3.9844l8.8916-20.94732h4.1748l9.082 20.94732h-4.1748l-2.3877-5.7129h-6.958l1.333-3.3692h4.2188l-3.2959-7.8662z" fill="#7400db"/><path d="m84.9746 29.0645v-20.91802h9.5215c4.2773 0 6.4159 1.87012 6.4159 5.61032 0 2.5293-1.6649 4.6241-4.995 6.2842l6.636 9.0528h-4.8928l-6.3721-9.126v-1.7725c3.7109-.6348 5.5664-2.0752 5.5664-4.3213 0-1.5429-.8691-2.3144-2.6074-2.3144h-5.3174v17.5049z" fill="#7400db"/><path d="m107.694 18.5615c0 4.8731 2.163 7.3096 6.49 7.3096 4.218 0 6.328-2.4365 6.328-7.3096 0-4.7949-2.11-7.1924-6.328-7.1924-4.327 0-6.49 2.3975-6.49 7.1924zm-4.028.0879c0-7.0996 3.506-10.6494 10.518-10.6494 6.904 0 10.356 3.5498 10.356 10.6494 0 7.0606-3.452 10.5908-10.356 10.5908-6.7 0-10.205-3.5302-10.518-10.5908z" fill="#7400db"/><path d="m128.217 29.0938v-20.94732h3.882l11.059 15.26372v-15.26372h3.736v20.94732h-3.882l-11.06-15.586v15.586z" fill="#7400db"/><path d="m153.886 29.0938h-3.985l8.892-20.94732h4.175l9.082 20.94732h-4.175l-2.388-5.7129h-6.958l1.333-3.3692h4.219l-3.296-7.8662z" fill="#e01b84"/><path d="m174.613 29.0938v-20.94732h9.375c4.278 0 6.416 1.96782 6.416 5.90332 0 4.2676-2.925 6.8506-8.774 7.749l-.557-3.457c3.516-.6348 5.274-2.0264 5.274-4.1748 0-1.7383-.869-2.6074-2.608-2.6074h-5.244v17.5342z" fill="#e01b84"/><path d="m192.982 29.0938v-20.94732h9.375c4.278 0 6.416 1.96782 6.416 5.90332 0 4.2676-2.924 6.8506-8.774 7.749l-.557-3.457c3.516-.6348 5.274-2.0264 5.274-4.1748 0-1.7383-.869-2.6074-2.608-2.6074h-5.244v17.5342z" fill="#e01b84"/></svg>