<svg fill="none" height="136" viewBox="0 0 169 136" width="169" xmlns="http://www.w3.org/2000/svg" xmlns:xlink="http://www.w3.org/1999/xlink"><linearGradient id="a" gradientUnits="userSpaceOnUse" x1="36" x2="72.347" y1="96" y2="-18.8746"><stop offset="0" stop-color="#9013fe"/><stop offset="1" stop-color="#e01b84"/></linearGradient><rect fill="url(#a)" height="96" rx="30" width="96" x="36"/><g fill="#fff"><path d="m89.7391 34.8654c-.4536 0-.8711.0891-1.2526.2674-1.1322.5799-1.8008 1.6818-1.8093 2.9106v8.4644c.2124 1.3456 1.7263.9797 1.7629 0v-7.9924c.1349-.4557 1-.2668 1.0206 0v18.3447c.22 1.8732 2.5992 1.3233 2.6598-.0315v-11.2333c.1521-.7246 1.1534-.3954 1.1753.0314-.0425 3.7339-.0309 7.4679-.0309 11.2019.2372 1.8636 2.6048 1.3868 2.6598.0315l.0309-18.3447c.1386-.4459.9402-.2749.9588 0v7.9924c.2124 1.3456 1.7262.9797 1.7628 0v-8.4644c-.0214-1.1764-.4451-2.3549-1.4536-2.9106-.3299-.1783-.7319-.2674-1.2062-.2674zm.0312-3.844c0 1.6331 1.3012 2.957 2.9064 2.957 1.6051 0 2.9064-1.3239 2.9064-2.957 0-1.633-1.3013-2.9569-2.9064-2.9569-1.6052 0-2.9064 1.3239-2.9064 2.9569z"/><path d="m69.6772 38.0645h10v2h-10z"/><path d="m109.71 39.2665-4.059-12.1797c-.589-1.7732-1.722-3.3158-3.238-4.4085s-3.3371-1.68-5.2056-1.6783h-27.0599c-1.8685-.0017-3.6901.5856-5.2058 1.6783s-2.6485 2.6353-3.2374 4.4085l-4.0599 12.1797c-1.0796.4517-2.0016 1.2125-2.65 2.1867-.6484.9743-.9944 2.1184-.9944 3.2887v14.8387c0 2.1902 1.199 4.0837 2.9677 5.1135v6.7575c0 .7871.3127 1.542.8693 2.0985.5565.5566 1.3114.8693 2.0985.8693h2.9677c.7871 0 1.542-.3127 2.0985-.8693.5566-.5565.8693-1.3114.8693-2.0985v-5.9355h35.613v5.9355c0 .7871.313 1.542.869 2.0985.557.5566 1.312.8693 2.099.8693h2.967c.787 0 1.542-.3127 2.099-.8693.556-.5565.869-1.3114.869-2.0985v-6.7575c.9-.5164 1.649-1.2609 2.17-2.1586s.796-1.9169.798-2.9549v-14.8387c0-1.1703-.346-2.3144-.995-3.2887-.648-.9742-1.57-1.735-2.65-2.1867zm-39.5625-12.331h27.0569c1.2791 0 2.4128.8131 2.8166 2.0299l3.282 9.8411h-39.2513l3.2794-9.8411c.1969-.5912.5749-1.1054 1.0804-1.4697.5055-.3644 1.1129-.5604 1.736-.5602zm-5.7604 29.6774c-.5848-.0002-1.1638-.1156-1.704-.3395-.5402-.224-1.031-.5522-1.4444-.9658-.4134-.4137-.7412-.9047-.9648-1.445-.2236-.5404-.3386-1.1195-.3384-1.7043s.1156-1.1638.3395-1.704c.224-.5402.5522-1.031.9658-1.4444.4137-.4133.9047-.7412 1.445-.9648.5404-.2236 1.1195-.3386 1.7043-.3384 1.181.0004 2.3135.4699 3.1483 1.3053.8349.8354 1.3037 1.9683 1.3033 3.1493s-.47 2.3135-1.3054 3.1484c-.8353.8348-1.9682 1.3036-3.1492 1.3032zm38.5809 0c-.585-.0002-1.164-.1156-1.704-.3395-.54-.224-1.031-.5522-1.4446-.9658-.4134-.4137-.7413-.9047-.9649-1.445-.2236-.5404-.3386-1.1195-.3384-1.7043s.1156-1.1638.3396-1.704c.2239-.5402.5521-1.031.9658-1.4444.4135-.4133.9045-.7412 1.4445-.9648.541-.2236 1.12-.3386 1.705-.3384 1.181.0004 2.313.4699 3.148 1.3053s1.304 1.9683 1.303 3.1493c0 1.181-.47 2.3135-1.305 3.1484-.835.8348-1.968 1.3036-3.149 1.3032z"/><path d="m87.6772 38.0645h10v2h-10z"/><path d="m71.7391 34.8654c-.4536 0-.8711.0891-1.2526.2674-1.1322.5799-1.8008 1.6818-1.8093 2.9106v8.4644c.2124 1.3456 1.7263.9797 1.7629 0v-7.9924c.1349-.4557 1-.2668 1.0206 0v18.3447c.22 1.8732 2.5992 1.3233 2.6598-.0315v-11.2333c.1521-.7246 1.1534-.3954 1.1753.0314-.0425 3.7339-.0309 7.4679-.0309 11.2019.2372 1.8636 2.6048 1.3868 2.6598.0315l.0309-18.3447c.1386-.4459.9402-.2749.9588 0v7.9924c.2124 1.3456 1.7262.9797 1.7628 0v-8.4644c-.0214-1.1764-.4451-2.3549-1.4536-2.9106-.3299-.1783-.7319-.2674-1.2062-.2674zm.0312-3.844c0 1.6331 1.3012 2.957 2.9064 2.957 1.6051 0 2.9064-1.3239 2.9064-2.957 0-1.633-1.3013-2.9569-2.9064-2.9569-1.6052 0-2.9064 1.3239-2.9064 2.9569z"/></g><path d="m17.8965 134.121c-1.8067.684-3.8574 1.025-6.1524 1.025-7.51949 0-11.279256-3.637-11.279256-10.913 0-6.884 3.759766-10.327 11.279256-10.327 2.295 0 4.3457.342 6.1524 1.026v3.515c-1.8067-.781-3.7598-1.172-5.8594-1.172-5.02929 0-7.54394 2.32-7.54394 6.958 0 5.03 2.51465 7.544 7.54394 7.544 2.0996 0 4.0527-.39 5.8594-1.172z" fill="#7400db"/><path d="m23.7119 135h-3.9844l8.8916-20.947h4.1748l9.0821 20.947h-4.1748l-2.3877-5.713h-6.958l1.333-3.369h4.2187l-3.2959-7.866z" fill="#7400db"/><path d="m44.4395 134.971v-20.918h9.5214c4.2774 0 6.4161 1.87 6.4161 5.61 0 2.529-1.6651 4.624-4.9952 6.284l6.6358 9.053h-4.8926l-6.3721-9.126v-1.772c3.711-.635 5.5664-2.076 5.5664-4.322 0-1.543-.8691-2.314-2.6074-2.314h-5.3174v17.505z" fill="#7400db"/><path d="m67.1592 124.468c0 4.873 2.1631 7.309 6.4892 7.309 4.2188 0 6.3282-2.436 6.3282-7.309 0-4.795-2.1094-7.193-6.3282-7.193-4.3261 0-6.4892 2.398-6.4892 7.193zm-4.0283.088c0-7.1 3.5058-10.65 10.5175-10.65 6.9043 0 10.3565 3.55 10.3565 10.65 0 7.06-3.4522 10.59-10.3565 10.59-6.6992 0-10.205-3.53-10.5175-10.59z" fill="#7400db"/><path d="m87.6816 135v-20.947h3.8819l11.0595 15.263v-15.263h3.735v20.947h-3.881l-11.06-15.586v15.586z" fill="#7400db"/><path d="m113.351 135h-3.985l8.892-20.947h4.175l9.082 20.947h-4.175l-2.388-5.713h-6.958l1.333-3.369h4.219l-3.296-7.866z" fill="#e01b84"/><path d="m134.078 135v-20.947h9.375c4.277 0 6.416 1.968 6.416 5.903 0 4.268-2.925 6.851-8.774 7.749l-.557-3.457c3.516-.635 5.274-2.026 5.274-4.175 0-1.738-.87-2.607-2.608-2.607h-5.244v17.534z" fill="#e01b84"/><path d="m152.447 135v-20.947h9.375c4.278 0 6.416 1.968 6.416 5.903 0 4.268-2.925 6.851-8.774 7.749l-.557-3.457c3.516-.635 5.274-2.026 5.274-4.175 0-1.738-.869-2.607-2.608-2.607h-5.244v17.534z" fill="#e01b84"/></svg>