<svg fill="none" height="19" viewBox="0 0 23 19" width="23" xmlns="http://www.w3.org/2000/svg"><path d="m22.706 2.18952c-.835.37-1.732.62-2.675.733.973-.58221 1.7009-1.49854 2.048-2.578002-.9142.54299-1.9147.925192-2.958 1.130002-.7016-.749136-1.6309-1.245675-2.6437-1.4125276-1.0127-.1668524-2.0522.0053175-2.9571.4897786-.9048.484459-1.6244 1.254109-2.047 2.189449-.4227.93534-.5247 1.98405-.2902 2.9833-1.85231-.09301-3.66437-.57445-5.31858-1.4131-1.6542-.83864-3.11358-2.01574-4.28342-3.454901-.4.690001-.63 1.490001-.63 2.342001-.000446.76699.18843 1.52224.54988 2.19873.36144.67649.88428 1.25331 1.52212 1.67927-.73972-.02354-1.46313-.22342-2.11-.583v.06c-.000075 1.07574.37203 2.11838 1.05318 2.95099.68115.83259 1.62939 1.40389 2.68382 1.61699-.68622.1857-1.40566.2131-2.104.08.2975.9256.877 1.735 1.65737 2.3149s1.72255.9013 2.69463.9191c-1.65017 1.2954-3.68811 1.9981-5.786 1.995-.371619.0001-.742924-.0216-1.112-.065 2.12948 1.3692 4.60834 2.0958 7.14 2.093 8.57 0 13.255-7.098 13.255-13.25398 0-.2-.005-.402-.014-.602.9113-.65903 1.6979-1.47511 2.323-2.41z" fill="#fff"/></svg>